<svg width="24" height="24" fill="none" xmlns="http://www.w3.org/2000/svg"><path d="M20.485 3.515A11.921 11.921 0 0012 0a11.921 11.921 0 00-8.485 3.515A11.921 11.921 0 000 12c0 3.205 1.248 6.219 3.515 8.485A11.921 11.921 0 0012 24c3.205 0 6.219-1.248 8.485-3.515A11.921 11.921 0 0024 12c0-3.205-1.248-6.219-3.515-8.485zM12 23.242C5.801 23.242.758 18.2.758 12 .758 5.801 5.8.758 12 .758 18.199.758 23.242 5.8 23.242 12c0 6.199-5.043 11.242-11.242 11.242z" fill="#fff"/><path d="M19.089 16.997l-.41-2.156a.421.421 0 00-.337-.332l-3.227-.627a.437.437 0 00-.386.114l-1.325 1.286c-2.233-.967-3.467-2.167-4.553-4.427l1.32-1.282a.407.407 0 00.117-.375l-.645-3.131a.422.422 0 00-.342-.327L7.08 5.342a.438.438 0 00-.173.003 3.184 3.184 0 00-1.534.823c-.731.71-1.01 1.746-.808 2.998.093.57.23 1.16.409 1.755a.43.43 0 00.53.283.413.413 0 00.291-.515 13.023 13.023 0 01-.384-1.652c-.161-.993.03-1.76.567-2.282a2.32 2.32 0 011.037-.58l1.847.33.544 2.638-1.37 1.329a.406.406 0 00-.087.462c1.244 2.705 2.704 4.12 5.386 5.223a.44.44 0 00.47-.088l1.368-1.329 2.718.528.34 1.792a2.22 2.22 0 01-.597 1.007c-.538.521-1.329.706-2.352.55-2.045-.312-4.881-1.276-6.71-3.043l-.026-.025c-.84-.82-1.59-1.95-2.167-3.268a.433.433 0 00-.561-.22.41.41 0 00-.227.544c.62 1.415 1.432 2.636 2.35 3.532l.027.025c1.974 1.908 5.004 2.943 7.181 3.275.274.042.537.063.789.063.938 0 1.724-.287 2.3-.846a3.04 3.04 0 00.848-1.49.4.4 0 00.004-.167zM13.14 8.042a.422.422 0 00-.427.416c0 .229.191.415.427.415 1.023 0 1.854.807 1.854 1.799 0 .226.195.415.428.415a.426.426 0 00.428-.415c0-1.45-1.216-2.63-2.71-2.63z" fill="#fff"/><path d="M13.14 6.271c-.167 0-.337.01-.503.027a.418.418 0 00-.378.458.425.425 0 00.472.368 3.85 3.85 0 01.41-.022c2.028 0 3.678 1.601 3.678 3.57 0 .133-.007.266-.022.397a.418.418 0 00.378.459.43.43 0 00.472-.367c.019-.162.028-.326.028-.489 0-2.426-2.034-4.4-4.535-4.4z" fill="#fff"/><path d="M13.14 4.5a6.63 6.63 0 00-.488.018.42.42 0 00-.394.445c.018.229.222.4.459.383.14-.01.283-.016.423-.016 3.035 0 5.505 2.397 5.505 5.342a5.2 5.2 0 01-.148 1.233.418.418 0 00.31.498.432.432 0 00.523-.307c.113-.464.17-.943.17-1.424 0-3.403-2.853-6.172-6.36-6.172z" fill="#fff"/></svg>