<svg width="140" height="140" fill="none" xmlns="http://www.w3.org/2000/svg"><path d="M60.453 85.667V70.922h1.035v14.745h-1.035zm5.436-46.022l.952.428-.124.289-.137.282-.15.274-.16.266-.17.26-.178.254-.187.248-.194.243-.199.237-.204.234-.208.229-.212.225-.213.223-.215.22-.216.216-.215.214-.213.213-.211.211-.209.21-.204.21-.2.208-.193.208-.187.207-.18.207-.17.206-.162.207-.153.206-.14.207-.13.207-.117.206-.104.208-.091.21-.95-.435.116-.265.13-.258.142-.252.154-.246.164-.24.173-.236.181-.232.189-.228.194-.225.2-.221.205-.219.207-.217.211-.215.213-.215.214-.213.214-.213.212-.213.211-.213.21-.214.205-.213.202-.216.196-.215.19-.218.184-.218.175-.221.168-.222.157-.225.149-.226.137-.228.127-.232.114-.233.102-.238-.002.002zm12.45 9.618H60.913v-1.096h17.426l.517.548-.517.548zm0-1.096h.517v.548l-.517-.549zm-.517 18.347V48.715h1.034v17.799l-.517.548-.517-.548zm1.034 0v.548h-.517l.517-.548zm-17.943-.548h17.426v1.097H60.913l-.517-.549.517-.548zm0 1.097h-.517v-.549l.517.549zm.517-18.348v17.799h-1.034V48.715l.517-.548.517.548zm-1.034 0v-.548h.517l-.517.548zm-2.097 44.988h22.219V94.8h-22.22l-.516-.548.517-.548zm0 1.097h-.517v-.548l.517.548zm-.517-47.702h1.034v47.158h-1.034V47.097zm8.032-11.596v1.097l.517-.548-.027.416-.073.409-.118.4-.155.39-.188.383-.219.375-.244.369-.267.364-.287.36-.305.358-.319.354-.331.352-.34.35-.348.348-.351.346-.354.346-.35.343-.347.342-.34.342-.33.339-.318.337-.302.335-.283.333-.262.33-.24.325-.211.32-.183.316-.152.31-.12.3-.085.292-.051.283-.017.277h-1.035l.026-.418.074-.41.118-.401.155-.392.188-.383.219-.377.244-.37.266-.364.287-.361.306-.358.318-.354.331-.353.341-.35.348-.349.35-.346.353-.346.35-.343.348-.342.34-.34.33-.34.317-.337.302-.334.283-.332.263-.33.238-.325.212-.32.183-.315.152-.308.118-.3.086-.29.05-.283.018-.275.517-.548h.004zm-.517.548v-.548h.517l-.517.548zm7.95-.047h-1.035l.517.548h-.831l-.355.002h-.316l-.282.001-.251.002-.223.002-.197.001-.174.002-.153.002-.136.002-.123.002-.111.002-.103.002-.098.002-.093.003-.096.002-.098.002-.105.003-.112.001-.124.003-.14.002-.157.001-.175.002-.199.002-.223.002-.252.001-.285.001h-.318l-.355.002h-.832v-1.096h.437l.394-.001.355-.001.317-.001h.282l.25-.003.223-.001.197-.002.175-.002.153-.002.135-.001.123-.003.11-.002.103-.002.098-.002.093-.002.096-.003.098-.002.104-.002.113-.002.124-.002.14-.002.155-.002.176-.002.198-.001.224-.002.252-.002h.284l.318-.002h.355l.394-.001h.438l.517.548h.003zm-.518-.548h.517v.548l-.517-.548zm8.305 11.528H80l-.018-.27-.052-.277-.089-.286-.122-.297-.158-.305-.19-.313-.218-.319-.248-.324-.272-.327-.294-.331-.313-.334-.329-.336-.342-.338-.352-.34-.36-.34-.363-.343-.366-.344-.364-.345-.36-.346-.352-.348-.344-.35-.33-.354-.316-.355-.297-.358-.276-.362-.254-.367-.226-.374-.196-.38-.161-.39-.122-.399-.077-.409-.028-.417h1.035l.017.27.053.277.088.286.123.297.157.305.19.313.219.319.247.324.272.328.294.33.313.334.33.336.341.338.353.34.359.34.363.343.365.344.365.345.36.346.352.348.343.35.331.354.316.355.297.358.276.362.253.367.226.374.196.38.162.39.121.399.078.409.027.417h.001zM80 94.253v-47.27h1.034v47.27l-.517.547-.517-.548zm1.034 0v.547h-.517l.517-.548zM66.33 20.92v15.13h-1.034V20.92l.517-.548.517.548zm-1.034 0v-.548h.517l-.517.548zm7.432.548h-6.916v-1.097h6.916l.518.548-.518.548v.001zm0-1.097h.518v.548l-.518-.548zm-.517 15.63V20.92h1.035v15.083H72.21zm-7.07-16.347l.993.836-.642.86-.994-.836-.196-.428.838-.432zm-.643.86l-.195-.163-.001-.265.196.428zm.834-2.233l.004 1.802-1.034.003-.004-1.803.225-.453.809.45zm-1.034.002l-.001-.29.225-.163-.225.453zm1.807-.275l-.998.727-.584-.905.998-.727.292-.096.292 1.001zm-.584-.905l.131-.096h.16l-.291.096zm7.208 1.001h-6.916v-1.097h6.916l.292.096-.292 1.001zm0-1.097h.16l.132.096-.292-.096zm.7 1.723l-.993-.722.584-.905.993.722.225.452-.809.453zm.584-.905l.225.164v.29l-.225-.453zm-.809 2.259v-1.807h1.035v1.807l-.197.43-.838-.43zm1.035 0v.265l-.197.165.197-.43zm-1.83.406l.992-.836.642.86-.993.835-.642-.86zm-5.091-7.962v5.026h-1.034v-5.026l.517-.548.517.548zm-1.034 0v-.548h.517l-.517.548zm5.456.548H66.8V11.98h4.94l.518.548-.517.548v.001zm0-1.097h.518v.548l-.517-.548zm-.517 5.575v-5.026h1.035v5.026h-1.035zM54.269 128.022c-.652 0-1.472-.651-2.458-1.954-.987-1.302-1.97-2.869-2.947-4.7-.978-1.831-1.774-3.51-2.389-5.038-.428 1.508-.93 3.368-1.508 5.581a247.963 247.963 0 01-1.37 5.112 2.06 2.06 0 01-1.284-.426c-.372-.284-.559-.631-.559-1.043 0-.293.131-.832.392-1.616 1.247-4.073 2.392-7.583 3.435-10.531a178.024 178.024 0 013.631-9.355c-.708.117-1.318.289-1.83.514-.512.225-1.066.503-1.662.836-.354.216-.577.323-.67.323-.13 0-.307-.098-.531-.294-.224-.196-.335-.362-.335-.499 2.384-1.077 4.479-1.616 6.285-1.616a9.75 9.75 0 013.352.588c1.08.391 1.969.999 2.667 1.821.698.822 1.048 1.85 1.048 3.084 0 1.742-.666 3.089-1.998 4.039a11.041 11.041 0 01-4.357 1.88c-1.573.303-2.928.455-4.064.455a101.554 101.554 0 00.949 1.762c.8 1.508 1.503 2.752 2.11 3.73.604.98 1.358 2.013 2.262 3.099.902 1.086 1.988 2.179 3.254 3.275-.111.255-.312.481-.6.676-.289.196-.564.294-.824.294v.003zm-7.347-13.307a14.82 14.82 0 004.19-.882c1.322-.489 2.41-1.204 3.268-2.144.857-.941 1.285-2.105 1.285-3.496 0-1.488-.48-2.57-1.44-3.245-.958-.676-2.145-1.014-3.56-1.014-1.118 2.351-2.365 5.944-3.744 10.781zm11.62 10.046c-.26 0-.474-.068-.642-.205-.168-.137-.252-.333-.252-.588 0-.313.177-.592.53-.837.355-.245.718-.367 1.09-.367.483 0 .726.235.726.705 0 .294-.154.582-.46.866-.308.284-.639.426-.992.426zm6.789.646c-.764 0-1.322-.245-1.677-.734-.354-.489-.53-1.136-.53-1.939 0-.803.158-1.645.475-2.526.316-.881.726-1.616 1.229-2.203.503-.588 1.006-.882 1.509-.882.167 0 .363.05.586.147-.224.196-.493.626-.81 1.292a15.886 15.886 0 00-.825 2.129c-.233.755-.349 1.366-.349 1.837 0 1.116.335 1.675 1.006 1.675.392 0 .857-.216 1.397-.647.54-.431 1.071-.999 1.592-1.704-.52-.451-.926-1.037-1.214-1.762a6.05 6.05 0 01-.433-2.261c0-1.019.247-1.891.74-2.615.494-.725 1.16-1.087 1.997-1.087.708 0 1.206.2 1.495.602.289.401.433.954.433 1.659 0 .744-.173 1.582-.517 2.511-.345.93-.796 1.836-1.355 2.717.336.196.69.294 1.062.294.54 0 1.099-.171 1.677-.514.577-.342 1.014-.876 1.313-1.6l.334.293c-.354.862-.856 1.498-1.508 1.909-.652.412-1.323.617-2.012.617-.503 0-.95-.098-1.341-.294-.67.92-1.383 1.665-2.137 2.233-.754.568-1.466.852-2.136.852l-.001.001zm4.105-4.318c.484-.764.875-1.542 1.174-2.335.298-.794.448-1.522.448-2.189 0-.548-.08-.959-.239-1.233-.158-.274-.358-.412-.6-.412-.26 0-.526.133-.796.397-.27.265-.494.626-.67 1.087a4.17 4.17 0 00-.266 1.513c0 .607.08 1.189.238 1.747a3.96 3.96 0 00.712 1.425zm6.482 4.26c-.764 0-1.328-.275-1.69-.822-.364-.548-.545-1.283-.545-2.204 0-1.762.577-4.156 1.732-7.181 1.154-3.025 2.444-5.752 3.87-8.181 1.424-2.428 2.453-3.643 3.086-3.643.26 0 .48.24.656.72.177.48.266.965.266 1.454 0 .901-.349 2.227-1.048 3.98-.698 1.752-1.615 3.53-2.751 5.331-1.137 1.802-2.347 3.261-3.631 4.377-.243 1.136-.364 2.125-.364 2.967 0 1.508.41 2.262 1.229 2.262.69 0 1.392-.46 2.109-1.38.717-.92 1.354-2.027 1.913-3.319l.42.235c-1.602 3.602-3.352 5.405-5.252 5.405v-.001zm.195-7.167c1.024-1.078 2.025-2.434 3.004-4.069.977-1.635 1.773-3.202 2.387-4.699.615-1.499.922-2.58.922-3.246 0-.314-.065-.47-.195-.47-.261 0-.796.671-1.607 2.012-.81 1.341-1.643 2.982-2.5 4.921-.857 1.938-1.527 3.789-2.012 5.551h.001zm9.442-6.404c-.335 0-.61-.083-.824-.25-.214-.166-.322-.406-.322-.719 0-.392.224-.745.67-1.057.448-.314.904-.47 1.37-.47.614 0 .921.304.921.911 0 .372-.19.73-.572 1.072-.381.343-.796.514-1.243.514v-.001zm-3.352 13.454c-.69 0-1.22-.23-1.592-.691-.373-.46-.559-1.052-.559-1.777 0-.764.21-1.821.628-3.173.419-1.351.941-2.536 1.565-3.554.623-1.019 1.234-1.528 1.829-1.528.168 0 .312.058.433.176a.63.63 0 01.182.47c0 .274-.298.93-.894 1.968a28.705 28.705 0 00-1.467 2.894c-.363.852-.545 1.659-.545 2.423 0 .685.108 1.15.322 1.396.214.244.563.367 1.047.367 1.453 0 2.887-1.499 4.302-4.494l.252.293c-.522 1.646-1.29 2.928-2.305 3.848-1.015.921-2.08 1.381-3.198 1.381v.001zm6.648.176c-.763 0-1.322-.245-1.677-.734-.353-.489-.53-1.136-.53-1.939 0-.803.158-1.645.476-2.526.316-.881.726-1.616 1.228-2.203.503-.588 1.006-.882 1.51-.882.167 0 .362.049.585.147-.224.196-.492.626-.81 1.292a15.995 15.995 0 00-.824 2.129c-.232.755-.349 1.366-.349 1.837 0 1.116.336 1.675 1.006 1.675.391 0 .857-.216 1.396-.647.54-.431 1.071-.999 1.592-1.704-.521-.451-.926-1.038-1.215-1.762a6.068 6.068 0 01-.433-2.262c0-1.018.248-1.89.74-2.614.494-.725 1.16-1.087 1.998-1.087.708 0 1.206.2 1.495.602.288.401.433.954.433 1.659 0 .744-.173 1.582-.517 2.511-.345.93-.796 1.836-1.355 2.717.335.196.688.294 1.061.294.54 0 1.1-.171 1.677-.514.577-.342 1.015-.876 1.313-1.6l.334.293c-.354.862-.856 1.498-1.508 1.909-.652.412-1.323.617-2.012.617-.503 0-.95-.098-1.341-.294-.67.92-1.382 1.665-2.137 2.233-.754.568-1.466.852-2.136.852v.001zm4.107-4.318a12.75 12.75 0 001.173-2.335c.297-.794.447-1.523.447-2.189 0-.548-.079-.96-.237-1.233-.158-.274-.358-.412-.6-.412-.261 0-.527.133-.796.397-.27.264-.494.626-.67 1.086a4.181 4.181 0 00-.266 1.514c0 .607.079 1.189.237 1.747a3.96 3.96 0 00.713 1.425h-.001z" fill="#fff"/></svg>